<svg id="visual" viewBox="0 0 900 450" width="900" height="450" xmlns="http://www.w3.org/2000/svg" xmlns:xlink="http://www.w3.org/1999/xlink" version="1.1"><rect x="0" y="0" width="900" height="450" fill="#ffffff"></rect><path d="M0 337L37.5 339.2C75 341.3 150 345.7 225 362.2C300 378.7 375 407.3 450 400.2C525 393 600 350 675 331.8C750 313.7 825 320.3 862.5 323.7L900 327L900 451L862.5 451C825 451 750 451 675 451C600 451 525 451 450 451C375 451 300 451 225 451C150 451 75 451 37.5 451L0 451Z" fill="#96D4D4" stroke-linecap="round" stroke-linejoin="miter"></path></svg>