<svg width="256px" height="256px" viewBox="0 0 24.00 24.00" fill="none" xmlns="http://www.w3.org/2000/svg"><g id="SVGRepo_bgCarrier" stroke-width="0"></g><g id="SVGRepo_tracerCarrier" stroke-linecap="round" stroke-linejoin="round" stroke="#CCCCCC" stroke-width="4.8"> <path d="M9 22H15C20 22 22 20 22 15V9C22 4 20 2 15 2H9C4 2 2 4 2 9V15C2 20 4 22 9 22Z" stroke="#35639c" stroke-width="0.9600000000000002" stroke-linecap="round" stroke-linejoin="round"></path> <path opacity="0.4" d="M8.4707 10.6401L12.0007 14.1601L15.5307 10.6401" stroke="#35639c" stroke-width="0.9600000000000002" stroke-linecap="round" stroke-linejoin="round"></path> </g><g id="SVGRepo_iconCarrier"> <path d="M9 22H15C20 22 22 20 22 15V9C22 4 20 2 15 2H9C4 2 2 4 2 9V15C2 20 4 22 9 22Z" stroke="#35639c" stroke-width="0.9600000000000002" stroke-linecap="round" stroke-linejoin="round"></path> <path opacity="0.4" d="M8.4707 10.6401L12.0007 14.1601L15.5307 10.6401" stroke="#35639c" stroke-width="0.9600000000000002" stroke-linecap="round" stroke-linejoin="round"></path> </g></svg>