<svg id="visual" viewBox="0 0 900 600" width="900" height="600" xmlns="http://www.w3.org/2000/svg" xmlns:xlink="http://www.w3.org/1999/xlink" version="1.1"><rect x="0" y="0" width="900" height="600" fill="#D9EEE1"></rect><path d="M0 273L37.5 280.3C75 287.7 150 302.3 225 306C300 309.7 375 302.3 450 295.7C525 289 600 283 675 285.8C750 288.7 825 300.3 862.5 306.2L900 312L900 601L862.5 601C825 601 750 601 675 601C600 601 525 601 450 601C375 601 300 601 225 601C150 601 75 601 37.5 601L0 601Z" fill="#282A35" stroke-linecap="round" stroke-linejoin="miter"></path></svg>