<svg id="visual" viewBox="0 0 900 450" width="900" height="450" xmlns="http://www.w3.org/2000/svg" xmlns:xlink="http://www.w3.org/1999/xlink" version="1.1"><g><g transform="translate(123 164)"><path d="M83.9 -48.5C98.2 -23.7 91.9 12.8 74.5 38.7C57 64.6 28.5 79.9 2.9 78.2C-22.8 76.6 -45.5 58 -62.2 32.5C-78.9 7 -89.4 -25.3 -78.1 -48.4C-66.7 -71.5 -33.3 -85.2 0.7 -85.6C34.8 -86 69.6 -73.2 83.9 -48.5Z" fill="#F7760E"></path></g><g transform="translate(665 232)"><path d="M34.4 -18.9C42.3 -6.3 44.7 10.4 38 19.9C31.4 29.4 15.7 31.6 1.1 31C-13.5 30.3 -27 26.9 -34.4 17C-41.7 7.1 -43 -9.2 -36.2 -21.2C-29.4 -33.1 -14.7 -40.7 -0.7 -40.3C13.3 -39.9 26.6 -31.5 34.4 -18.9Z" fill="#F7760E"></path></g><g transform="translate(478 424)"><path d="M27.7 -17C35.4 -2.7 40.8 12 35.8 22.1C30.8 32.2 15.4 37.7 2.5 36.2C-10.3 34.7 -20.6 26.3 -27.5 15.1C-34.4 3.9 -37.9 -10 -32.8 -22.9C-27.6 -35.8 -13.8 -47.7 -1.9 -46.6C10 -45.5 20 -31.4 27.7 -17Z" fill="#F7760E"></path></g></g></svg>