<svg id="visual" viewBox="0 0 900 600" width="900" height="600" xmlns="http://www.w3.org/2000/svg" xmlns:xlink="http://www.w3.org/1999/xlink" version="1.1"><g><g transform="translate(870 261)"><path d="M86.2 -25.2C99 11.5 88.1 58.8 57.7 81.4C27.3 104 -22.6 101.8 -58.6 76.6C-94.6 51.4 -116.9 3.1 -104.8 -32.6C-92.7 -68.3 -46.4 -91.4 -4.8 -89.9C36.7 -88.3 73.3 -62 86.2 -25.2Z" stroke="#F7760E" fill="none" stroke-width="20"></path></g><g transform="translate(539 586)"><path d="M92.6 -32.2C104.3 6 87.3 51.4 55.4 74.1C23.4 96.7 -23.4 96.7 -55.5 74C-87.6 51.3 -105 5.8 -93.3 -32.4C-81.6 -70.6 -40.8 -101.5 -0.2 -101.5C40.4 -101.4 80.8 -70.4 92.6 -32.2Z" stroke="#F7760E" fill="none" stroke-width="20"></path></g><g transform="translate(20 447)"><path d="M88.9 -32.3C100.2 5.9 84 49.5 51.9 73.3C19.8 97.1 -28.2 101 -59.2 79C-90.3 57 -104.4 9.3 -91.7 -30.8C-79 -70.8 -39.5 -103.1 -0.3 -103C38.8 -102.9 77.6 -70.4 88.9 -32.3Z" stroke="#F7760E" fill="none" stroke-width="20"></path></g><g transform="translate(147 95)"><path d="M79.4 -27.3C89.7 5.8 75.6 45.3 46.5 67.2C17.3 89.2 -27 93.6 -55.8 73.5C-84.7 53.3 -98.1 8.6 -86.2 -26.7C-74.3 -62 -37.2 -87.7 -1.3 -87.3C34.6 -86.9 69.2 -60.3 79.4 -27.3Z" stroke="#F7760E" fill="none" stroke-width="20"></path></g></g></svg>