<svg id="visual" viewBox="0 0 900 600" width="900" height="600" xmlns="http://www.w3.org/2000/svg" xmlns:xlink="http://www.w3.org/1999/xlink" version="1.1"><path d="M0 528L4.8 528.8C9.7 529.7 19.3 531.3 29 533.7C38.7 536 48.3 539 58 541.7C67.7 544.3 77.3 546.7 87 545C96.7 543.3 106.3 537.7 116 536.2C125.7 534.7 135.3 537.3 145 538.3C154.7 539.3 164.3 538.7 174 539.8C183.7 541 193.3 544 203 545.8C212.7 547.7 222.3 548.3 232 547.3C241.7 546.3 251.3 543.7 261 541.8C270.7 540 280.3 539 290 539.3C299.7 539.7 309.3 541.3 319 540.5C328.7 539.7 338.3 536.3 348 535C357.7 533.7 367.3 534.3 377 534.8C386.7 535.3 396.3 535.7 406 534.8C415.7 534 425.3 532 435.2 532.7C445 533.3 455 536.7 464.8 537.3C474.7 538 484.3 536 494 536.7C503.7 537.3 513.3 540.7 523 542.2C532.7 543.7 542.3 543.3 552 544.2C561.7 545 571.3 547 581 546C590.7 545 600.3 541 610 540.3C619.7 539.7 629.3 542.3 639 542.8C648.7 543.3 658.3 541.7 668 540.8C677.7 540 687.3 540 697 540.5C706.7 541 716.3 542 726 543.8C735.7 545.7 745.3 548.3 755 548.2C764.7 548 774.3 545 784 543.5C793.7 542 803.3 542 813 541.3C822.7 540.7 832.3 539.3 842 540.2C851.7 541 861.3 544 871 543.7C880.7 543.3 890.3 539.7 895.2 537.8L900 536L900 601L895.2 601C890.3 601 880.7 601 871 601C861.3 601 851.7 601 842 601C832.3 601 822.7 601 813 601C803.3 601 793.7 601 784 601C774.3 601 764.7 601 755 601C745.3 601 735.7 601 726 601C716.3 601 706.7 601 697 601C687.3 601 677.7 601 668 601C658.3 601 648.7 601 639 601C629.3 601 619.7 601 610 601C600.3 601 590.7 601 581 601C571.3 601 561.7 601 552 601C542.3 601 532.7 601 523 601C513.3 601 503.7 601 494 601C484.3 601 474.7 601 464.8 601C455 601 445 601 435.2 601C425.3 601 415.7 601 406 601C396.3 601 386.7 601 377 601C367.3 601 357.7 601 348 601C338.3 601 328.7 601 319 601C309.3 601 299.7 601 290 601C280.3 601 270.7 601 261 601C251.3 601 241.7 601 232 601C222.3 601 212.7 601 203 601C193.3 601 183.7 601 174 601C164.3 601 154.7 601 145 601C135.3 601 125.7 601 116 601C106.3 601 96.7 601 87 601C77.3 601 67.7 601 58 601C48.3 601 38.7 601 29 601C19.3 601 9.7 601 4.8 601L0 601Z" fill="#f88400" stroke-linecap="round" stroke-linejoin="miter"></path></svg>