<svg id="visual" viewBox="0 0 900 600" width="900" height="600" xmlns="http://www.w3.org/2000/svg" xmlns:xlink="http://www.w3.org/1999/xlink" version="1.1"><rect x="0" y="0" width="900" height="600" fill="#ffffff"></rect><path d="M0 524L37.5 525.5C75 527 150 530 225 541C300 552 375 571 450 566.3C525 561.7 600 533.3 675 521.3C750 509.3 825 513.7 862.5 515.8L900 518L900 601L862.5 601C825 601 750 601 675 601C600 601 525 601 450 601C375 601 300 601 225 601C150 601 75 601 37.5 601L0 601Z" fill="#96D4D4" stroke-linecap="round" stroke-linejoin="miter"></path></svg>