<svg id="wave" style="transform:rotate(0deg); transition: 0.3s" viewBox="0 0 1440 230" version="1.1" xmlns="http://www.w3.org/2000/svg"><defs><linearGradient id="sw-gradient-0" x1="0" x2="0" y1="1" y2="0"><stop stop-color="rgba(243, 106, 62, 1)" offset="0%"></stop><stop stop-color="rgba(255, 179, 11, 1)" offset="100%"></stop></linearGradient></defs><path style="transform:translate(0, 0px); opacity:1" fill="url(#sw-gradient-0)" d="M0,115L1440,161L2880,115L4320,115L5760,184L7200,161L8640,184L10080,92L11520,207L12960,0L14400,0L15840,115L17280,92L18720,46L20160,207L21600,115L23040,184L24480,92L25920,207L27360,23L28800,207L30240,138L31680,46L33120,0L34560,0L34560,230L33120,230L31680,230L30240,230L28800,230L27360,230L25920,230L24480,230L23040,230L21600,230L20160,230L18720,230L17280,230L15840,230L14400,230L12960,230L11520,230L10080,230L8640,230L7200,230L5760,230L4320,230L2880,230L1440,230L0,230Z"></path><defs><linearGradient id="sw-gradient-1" x1="0" x2="0" y1="1" y2="0"><stop stop-color="rgba(243, 106, 62, 1)" offset="0%"></stop><stop stop-color="rgba(255, 179, 11, 1)" offset="100%"></stop></linearGradient></defs><path style="transform:translate(0, 50px); opacity:0.9" fill="url(#sw-gradient-1)" d="M0,207L1440,23L2880,115L4320,184L5760,92L7200,69L8640,207L10080,46L11520,184L12960,23L14400,184L15840,69L17280,138L18720,46L20160,138L21600,69L23040,23L24480,115L25920,115L27360,161L28800,184L30240,161L31680,69L33120,46L34560,138L34560,230L33120,230L31680,230L30240,230L28800,230L27360,230L25920,230L24480,230L23040,230L21600,230L20160,230L18720,230L17280,230L15840,230L14400,230L12960,230L11520,230L10080,230L8640,230L7200,230L5760,230L4320,230L2880,230L1440,230L0,230Z"></path></svg>